<svg width="348" height="354" viewBox="0 0 348 354" fill="none" xmlns="http://www.w3.org/2000/svg">
<path d="M108.244 114.867L112.095 106.733L95.8265 99.0301L91.9752 107.164L108.244 114.867ZM273.911 226.447C277.739 223.277 278.273 217.604 275.102 213.775C271.932 209.947 266.258 209.414 262.43 212.584L273.911 226.447ZM91.9752 107.164C84.3968 123.171 84.4208 145.375 89.5937 167C94.8321 188.899 105.701 211.761 121.727 229.621C137.814 247.55 159.454 260.774 185.9 262.131C212.312 263.485 241.943 252.921 273.911 226.447L262.43 212.584C232.786 237.133 207.434 245.211 186.822 244.154C166.244 243.099 148.817 232.859 135.124 217.599C121.369 202.271 111.743 182.221 107.1 162.812C102.391 143.129 103.148 125.63 108.244 114.867L91.9752 107.164Z" fill="currentColor"/>
<path d="M19.0789 137.205C67.9171 269.365 100.547 342.051 100.547 342.051C100.547 342.051 178.793 325.99 270.936 303.99C363.079 281.99 374.579 74.9905 187.087 137.205C191.079 -61.0095 -29.7593 5.04475 19.0789 137.205Z" stroke="currentColor" stroke-width="23" stroke-linejoin="round"/>
</svg>
